<?xml version="1.0" encoding="UTF-8" standalone="no"?>
<svg width="30px" height="30px" viewBox="0 0 30 30" version="1.1" xmlns="http://www.w3.org/2000/svg" xmlns:xlink="http://www.w3.org/1999/xlink" xmlns:sketch="http://www.bohemiancoding.com/sketch/ns">
    <!-- Generator: Sketch 3.5.1 (25234) - http://www.bohemiancoding.com/sketch -->
    <title>instagram</title>
    <desc>Created with Sketch.</desc>
    <defs></defs>
    <g id="Page-1" stroke="none" stroke-width="1" fill="none" fill-rule="evenodd" sketch:type="MSPage">
        <g id="instagram" sketch:type="MSLayerGroup">
            <g id="Page-2" sketch:type="MSShapeGroup">
                <g id="iPhone-6">
                    <circle id="Oval-1" fill="#000000" cx="15" cy="15" r="15"></circle>
                    <g id="1450572533-instagram-online-social-media" transform="translate(8.000000, 8.000000)" fill="#FFFFFF">
                        <g id="Flat_copy">
                            <path d="M12.25,0 L1.75,0 C0.7616875,0 0,0.7616875 0,1.75 L0,12.25 C0,13.237875 0.7616875,14 1.75,14 L12.25,14 C13.237875,14 14,13.237875 14,12.25 L14,1.75 C14,0.7616875 13.237875,0 12.25,0 L12.25,0 L12.25,0 Z M7.0100625,4.249875 C8.56275,4.249875 9.821,5.4691875 9.821,6.97375 C9.821,8.4774375 8.56275,9.697625 7.0100625,9.697625 C5.4586875,9.697625 4.2,8.4774375 4.2,6.97375 C4.2004375,5.4691875 5.459125,4.249875 7.0100625,4.249875 L7.0100625,4.249875 L7.0100625,4.249875 Z M12.25,11.8125 C12.25,12.1191875 12.11875,12.25 11.8125,12.25 L2.1875,12.25 C1.8816875,12.25 1.75,12.1191875 1.75,11.8125 L1.75,5.6875 L2.8406875,5.924625 C2.723875,6.30525 2.66,6.70775 2.66,7.1255625 C2.66,9.4521875 4.608625,11.3404375 7.0100625,11.3404375 C9.4128125,11.3404375 11.3605625,9.452625 11.3605625,7.1255625 C11.3605625,6.70775 11.297125,6.30525 11.1803125,5.924625 L12.25,5.6875 L12.25,11.8125 L12.25,11.8125 L12.25,11.8125 Z M12.25,3.9375 C12.25,4.1794375 12.0544375,4.375 11.8125,4.375 L10.0625,4.375 C9.8205625,4.375 9.625,4.1794375 9.625,3.9375 L9.625,2.1875 C9.625,1.9455625 9.8205625,1.75 10.0625,1.75 L11.8125,1.75 C12.0544375,1.75 12.25,1.9455625 12.25,2.1875 L12.25,3.9375 L12.25,3.9375 L12.25,3.9375 Z" id="Shape"></path>
                        </g>
                    </g>
                </g>
            </g>
        </g>
    </g>
</svg>