<?xml version="1.0" encoding="UTF-8" standalone="no"?>
<svg width="30px" height="30px" viewBox="0 0 30 30" version="1.1" xmlns="http://www.w3.org/2000/svg" xmlns:xlink="http://www.w3.org/1999/xlink" xmlns:sketch="http://www.bohemiancoding.com/sketch/ns">
    <!-- Generator: Sketch 3.5.1 (25234) - http://www.bohemiancoding.com/sketch -->
    <title>linkedin</title>
    <desc>Created with Sketch.</desc>
    <defs></defs>
    <g id="Page-1" stroke="none" stroke-width="1" fill="none" fill-rule="evenodd" sketch:type="MSPage">
        <g id="linkedin" sketch:type="MSLayerGroup">
            <g id="Page-2" sketch:type="MSShapeGroup">
                <g id="iPhone-6">
                    <circle id="Oval-1" fill="#000000" cx="15" cy="15" r="15"></circle>
                    <g id="1450572567-linked-in-online-social-media" transform="translate(7.000000, 6.000000)" fill="#FFFFFF">
                        <g id="Flat_copy">
                            <path d="M17,16.623875 L17,10.338125 C17,6.97 15.20225,5.4028125 12.80525,5.4028125 C10.8709688,5.4028125 10.0039688,6.46690625 9.5210625,7.21384375 L9.5210625,5.66046875 L5.8766875,5.66046875 C5.92503125,6.6895 5.8766875,16.623875 5.8766875,16.623875 L9.5210625,16.623875 L9.5210625,10.5012187 C9.5210625,10.1745 9.5444375,9.84671875 9.641125,9.61296875 C9.90409375,8.9579375 10.503875,8.2800625 11.5100625,8.2800625 C12.8291562,8.2800625 13.3561562,9.2851875 13.3561562,10.758875 L13.3561562,16.6244062 L17,16.6244062 L17,16.623875 L17,16.623875 L17,16.623875 Z M2.03734375,4.1639375 C3.3075625,4.1639375 4.09965625,3.321375 4.09965625,2.26896875 C4.07628125,1.19371875 3.30809375,0.37559375 2.06178125,0.37559375 C0.81546875,0.37559375 0,1.1931875 0,2.26896875 C0,3.321375 0.79103125,4.1639375 2.0145,4.1639375 L2.03734375,4.1639375 L2.03734375,4.1639375 L2.03734375,4.1639375 Z M3.85953125,16.623875 L3.85953125,5.66046875 L0.2156875,5.66046875 L0.2156875,16.623875 L3.85953125,16.623875 L3.85953125,16.623875 L3.85953125,16.623875 Z" id="Shape"></path>
                        </g>
                    </g>
                </g>
            </g>
        </g>
    </g>
</svg>