<?xml version="1.0" encoding="UTF-8" standalone="no"?>
<svg width="30px" height="30px" viewBox="0 0 30 30" version="1.1" xmlns="http://www.w3.org/2000/svg" xmlns:xlink="http://www.w3.org/1999/xlink" xmlns:sketch="http://www.bohemiancoding.com/sketch/ns">
    <!-- Generator: Sketch 3.5.1 (25234) - http://www.bohemiancoding.com/sketch -->
    <title>twitter</title>
    <desc>Created with Sketch.</desc>
    <defs></defs>
    <g id="Page-1" stroke="none" stroke-width="1" fill="none" fill-rule="evenodd" sketch:type="MSPage">
        <g id="twitter" sketch:type="MSLayerGroup">
            <g id="Page-2" sketch:type="MSShapeGroup">
                <g id="iPhone-6">
                    <circle id="Oval-1" fill="#000000" cx="15" cy="15" r="15"></circle>
                    <g id="1450572538-twitter-online-social-media" transform="translate(7.000000, 8.000000)" fill="#FFFFFF">
                        <g id="Flat_copy">
                            <path d="M10.6494375,0.57375 C9.114125,1.13732143 8.1440625,2.59017857 8.25403125,4.18017857 L8.29121875,4.79357143 L7.67709375,4.71857143 C5.442125,4.43089286 3.48871875,3.45428571 1.83015625,1.81339286 L1.01946875,0.999642857 L0.8106875,1.60071429 C0.3686875,2.94053571 0.6513125,4.35589286 1.57196875,5.30785714 C2.063375,5.83392857 1.95234375,5.90892857 1.10553125,5.59553571 C0.8106875,5.49589286 0.5525,5.42035714 0.5280625,5.45785714 C0.44253125,5.54571429 0.73684375,6.68517857 0.9700625,7.13625 C1.28934375,7.76303571 1.940125,8.37589286 2.6530625,8.73964286 L3.25496875,9.02732143 L2.5425625,9.03964286 C1.855125,9.03964286 1.83015625,9.05196429 1.904,9.31553571 C2.1494375,10.1292857 3.12003125,10.9939286 4.20059375,11.3694643 L4.961875,11.6319643 L4.298875,12.0326786 C3.31659375,12.6096429 2.16165625,12.9348214 1.00671875,12.9589286 C0.45421875,12.97125 0,13.0216071 0,13.0596429 C0,13.1844643 1.49865625,13.8851786 2.3704375,14.1616071 C4.98684375,14.9753571 8.09465625,14.6244643 10.4284375,13.2348214 C12.087,12.2453571 13.7445,10.2792857 14.5190625,8.37535714 C14.9371562,7.36178571 15.3541875,5.50767857 15.3541875,4.61946429 C15.3541875,4.04303571 15.391375,3.96803571 16.0788125,3.27964286 C16.4846875,2.87892857 16.8650625,2.44071429 16.9389062,2.31535714 C17.0621562,2.07696429 17.048875,2.07696429 16.4230625,2.29017857 C15.3791562,2.66625 15.2314687,2.61589286 15.7478437,2.05232143 C16.1282187,1.65160714 16.5829687,0.925178571 16.5829687,0.7125 C16.5829687,0.675 16.3991562,0.737142857 16.1898437,0.850178571 C15.9688437,0.974464286 15.4774375,1.1625 15.10875,1.275 L14.44575,1.48821429 L13.8438437,1.07464286 C13.5118125,0.849642857 13.0459062,0.598928571 12.7999375,0.523928571 C12.1730625,0.34875 11.2146875,0.373392857 10.6494375,0.57375 L10.6494375,0.57375 L10.6494375,0.57375 Z" id="Shape"></path>
                        </g>
                    </g>
                </g>
            </g>
        </g>
    </g>
</svg>